<svg width="48" height="48" viewBox="0 0 48 48" fill="none" xmlns="http://www.w3.org/2000/svg">
<rect width="48" height="48" fill="#6B96C3" fill-opacity="0.8"/>
<path d="M21 18.968C20.84 18.792 20.608 18.608 20.304 18.416C20 18.208 19.64 18.016 19.224 17.84C18.808 17.664 18.36 17.52 17.88 17.408C17.4 17.296 16.904 17.24 16.392 17.24C15.272 17.24 14.44 17.448 13.896 17.864C13.352 18.28 13.08 18.856 13.08 19.592C13.08 20.136 13.232 20.568 13.536 20.888C13.84 21.192 14.304 21.448 14.928 21.656C15.552 21.864 16.336 22.088 17.28 22.328C18.432 22.6 19.432 22.928 20.28 23.312C21.128 23.68 21.776 24.176 22.224 24.8C22.672 25.424 22.896 26.248 22.896 27.272C22.896 28.136 22.736 28.88 22.416 29.504C22.096 30.128 21.648 30.64 21.072 31.04C20.496 31.424 19.832 31.712 19.08 31.904C18.328 32.08 17.52 32.168 16.656 32.168C15.808 32.168 14.96 32.08 14.112 31.904C13.28 31.728 12.48 31.472 11.712 31.136C10.96 30.784 10.264 30.36 9.624 29.864L10.848 27.56C11.056 27.768 11.352 28 11.736 28.256C12.136 28.496 12.592 28.728 13.104 28.952C13.632 29.176 14.2 29.368 14.808 29.528C15.432 29.672 16.064 29.744 16.704 29.744C17.776 29.744 18.592 29.56 19.152 29.192C19.728 28.808 20.016 28.264 20.016 27.56C20.016 26.984 19.832 26.528 19.464 26.192C19.096 25.84 18.56 25.544 17.856 25.304C17.152 25.064 16.312 24.824 15.336 24.584C14.216 24.28 13.28 23.952 12.528 23.6C11.776 23.232 11.208 22.768 10.824 22.208C10.456 21.632 10.272 20.904 10.272 20.024C10.272 18.904 10.544 17.96 11.088 17.192C11.632 16.408 12.368 15.824 13.296 15.44C14.24 15.04 15.296 14.84 16.464 14.84C17.232 14.84 17.96 14.928 18.648 15.104C19.336 15.264 19.976 15.488 20.568 15.776C21.176 16.064 21.728 16.392 22.224 16.76L21 18.968ZM30.1603 14.96H32.7043L39.3283 32H36.4963L34.6963 27.368H28.1203L26.3443 32H23.4883L30.1603 14.96ZM34.1683 25.376L31.4323 17.912L28.6003 25.376H34.1683Z" fill="white"/>
</svg>
